<?xml version="1.0" standalone="no"?>
<!DOCTYPE svg PUBLIC "-//W3C//DTD SVG 20010904//EN"
 "http://www.w3.org/TR/2001/REC-SVG-20010904/DTD/svg10.dtd">
<svg version="1.0" xmlns="http://www.w3.org/2000/svg"
 width="960.000000pt" height="960.000000pt" viewBox="0 0 960.000000 960.000000"
 preserveAspectRatio="xMidYMid meet">

<g transform="translate(0.000000,960.000000) scale(0.100000,-0.100000)"
fill="#000000" stroke="none">
<path d="M0 9031 l0 -568 29 -6 c54 -11 62 -29 59 -130 l-3 -91 -42 -31 c-50
-36 -59 -82 -21 -107 20 -14 23 -25 27 -102 3 -80 1 -90 -23 -126 -20 -31 -26
-52 -26 -94 0 -48 3 -55 22 -61 13 -3 39 -13 59 -22 35 -14 37 -18 43 -74 13
-114 -5 -165 -73 -205 -30 -18 -36 -34 -47 -134 l-6 -45 54 3 c40 2 61 -2 85
-17 l33 -21 0 -98 c0 -84 -3 -102 -19 -121 -11 -13 -22 -28 -24 -34 -2 -7 -28
-12 -65 -12 -61 0 -62 0 -62 -27 0 -26 2 -28 45 -28 26 0 63 -9 85 -20 l40
-20 0 -104 c0 -98 -2 -106 -26 -135 -18 -21 -38 -33 -65 -37 -37 -6 -39 -9
-39 -41 0 -35 0 -35 38 -28 41 7 79 -4 111 -32 19 -15 21 -29 21 -116 0 -104
-6 -119 -57 -146 -31 -16 -89 -14 -123 4 l-30 16 0 -59 c0 -52 3 -60 25 -72
24 -13 25 -18 25 -97 l0 -83 38 6 c43 7 115 -22 126 -51 12 -33 6 -189 -9
-215 -8 -14 -14 -48 -15 -76 0 -41 5 -56 25 -78 30 -32 34 -69 8 -64 -10 2
-17 11 -17 21 1 9 -2 15 -6 12 -5 -3 -10 0 -12 6 -3 8 -14 6 -38 -6 -37 -19
-93 -24 -128 -12 -21 8 -22 6 -21 -45 0 -29 3 -47 6 -40 15 37 113 58 173 37
52 -18 51 -18 44 0 -4 8 -1 15 5 15 16 0 15 -267 -1 -284 -18 -17 -75 -36
-110 -36 -33 0 -63 13 -96 43 l-22 20 0 -91 c0 -51 2 -92 4 -92 2 0 23 9 47
20 53 24 90 25 129 5 55 -28 60 -46 60 -202 0 -78 -4 -153 -10 -167 -5 -14
-22 -32 -37 -39 -28 -15 -28 -16 -26 -98 1 -46 2 -87 2 -91 1 -5 12 -8 26 -8
16 0 40 -15 65 -40 l40 -40 0 -93 c0 -110 -7 -120 -88 -139 -46 -11 -52 -16
-52 -39 0 -20 6 -28 24 -33 13 -3 40 -25 61 -47 l38 -42 -6 -136 c-3 -75 -8
-143 -12 -153 -3 -9 -27 -25 -53 -36 -46 -20 -47 -21 -21 -30 29 -11 74 -61
84 -93 6 -18 12 -20 45 -14 37 6 77 -2 203 -41 51 -16 62 -13 90 23 40 50 111
67 166 39 28 -15 81 -83 81 -104 0 -7 -10 -26 -22 -43 l-23 -30 25 -19 c14
-11 27 -20 30 -20 3 0 15 19 28 43 12 23 38 53 57 66 52 35 81 28 230 -52 11
-6 38 -10 60 -8 24 1 74 -10 125 -29 47 -16 93 -30 102 -30 9 0 41 14 70 32
73 43 143 49 195 17 49 -31 73 -33 70 -5 -2 17 5 22 33 26 23 3 31 8 22 13 -7
5 -21 6 -31 2 -14 -4 -23 0 -31 15 -12 22 -36 27 -43 8 -4 -10 -6 -10 -6 0 -1
17 -21 15 -21 -3 0 -26 -18 -16 -29 16 -16 47 -14 77 10 127 34 69 123 101
188 68 36 -19 89 -80 97 -112 10 -38 -2 -89 -27 -123 -26 -36 -27 -35 61 -94
74 -50 111 -109 112 -179 1 -49 -19 -86 -78 -151 -22 -23 -50 -57 -63 -74 -14
-22 -31 -33 -46 -33 -30 0 -42 18 -18 27 10 4 24 13 31 20 11 11 11 13 -2 13
-9 0 -16 -4 -16 -10 0 -17 -38 -11 -49 8 -8 14 -13 15 -29 6 -11 -7 -57 -11
-114 -10 -54 0 -91 -3 -85 -7 8 -6 5 -7 -6 -3 -10 3 -23 6 -28 6 -6 0 -7 5 -4
10 3 6 -3 10 -14 10 -10 0 -21 3 -23 8 -1 4 -24 17 -49 30 -46 22 -99 67 -99
83 0 5 -4 9 -8 9 -5 0 -16 -26 -25 -59 -11 -41 -26 -67 -47 -84 -16 -14 -27
-28 -23 -30 5 -3 64 -8 133 -12 69 -4 172 -14 230 -22 58 -8 117 -16 131 -17
14 -2 31 -6 37 -10 8 -5 10 -2 6 8 -4 11 0 16 10 16 14 0 21 -21 18 -51 -1 -3
9 -4 22 -2 13 3 27 0 30 -6 4 -6 2 -11 -4 -11 -6 0 -9 -4 -6 -9 4 -5 -3 -7
-13 -4 -20 5 -26 -5 -35 -60 -6 -33 12 -67 34 -67 8 0 22 -5 30 -10 12 -7 12
-12 2 -22 -17 -17 -15 -45 4 -52 18 -7 56 26 54 45 -2 8 -2 27 -1 43 1 27 3
28 35 22 50 -10 63 11 47 75 -10 39 -11 53 -1 62 9 9 16 6 31 -12 18 -22 19
-34 13 -100 -4 -42 -6 -97 -5 -123 1 -68 -10 -88 -55 -104 -49 -17 -71 -18
-77 -1 -7 21 -91 13 -118 -11 -28 -27 -61 -27 -118 -2 -57 26 -83 25 -129 -4
-61 -40 -91 -41 -156 -6 -70 36 -82 37 -142 5 -25 -13 -68 -28 -95 -31 -57 -8
-61 -21 -29 -84 52 -102 71 -318 36 -405 -11 -27 -26 -54 -33 -58 -16 -10 -17
-59 -3 -73 6 -6 12 -27 13 -47 2 -20 8 -42 15 -49 7 -7 12 -29 12 -49 0 -21 5
-41 10 -44 19 -12 10 -33 -19 -45 -40 -16 -51 -69 -22 -107 12 -14 21 -34 21
-44 0 -10 5 -21 11 -24 6 -4 8 -22 4 -44 -5 -33 -2 -41 29 -74 19 -20 44 -63
56 -94 21 -55 22 -65 12 -186 -5 -71 -15 -134 -21 -140 -6 -6 -11 -23 -11 -39
0 -18 -13 -40 -40 -68 -22 -22 -40 -44 -40 -49 0 -5 -11 -25 -25 -45 -23 -34
-24 -39 -12 -69 25 -59 29 -105 12 -129 -23 -34 -19 -44 30 -63 55 -20 65 -37
65 -109 0 -54 -1 -55 -42 -78 -30 -16 -43 -30 -43 -45 0 -12 -4 -25 -8 -29 -4
-4 -7 -22 -7 -41 l0 -33 315 0 c173 0 315 2 315 5 0 3 -19 19 -42 35 -24 17
-55 40 -70 52 -39 32 -117 58 -172 58 -27 0 -79 5 -115 12 -61 10 -64 12 -36
20 45 12 303 11 360 -2 28 -7 102 -12 165 -13 63 -1 107 -3 97 -5 -14 -3 -15
-7 -7 -17 9 -10 7 -20 -6 -40 -15 -23 -15 -28 -3 -36 8 -5 19 -9 25 -9 6 0 26
-8 44 -17 64 -31 116 -37 411 -40 l297 -4 10 31 c7 20 18 30 31 30 11 0 23 5
26 10 3 6 -1 10 -9 10 -17 0 -56 46 -56 66 0 8 7 14 15 14 8 0 17 11 21 25 3
14 15 30 25 35 10 6 16 17 13 24 -3 8 -1 17 5 21 6 3 11 15 11 26 0 24 16 25
29 2 9 -16 14 -14 45 22 45 51 49 96 10 114 -35 16 -26 23 43 32 84 11 95 28
94 132 -1 46 3 95 8 108 8 20 10 14 11 -31 3 -96 8 -159 15 -171 4 -6 19 -8
34 -5 14 3 66 10 115 15 72 8 95 7 117 -5 15 -8 42 -14 59 -14 20 0 30 -5 30
-15 0 -8 -6 -15 -14 -15 -31 0 -27 -23 12 -61 44 -44 47 -43 69 21 14 40 3 53
-34 43 -16 -3 -23 -1 -23 9 0 21 78 11 83 -10 3 -12 4 -11 4 3 -1 11 2 29 6
40 4 11 8 67 9 125 l2 105 -130 3 c-352 9 -415 11 -489 17 -44 3 -90 11 -101
17 -33 16 -47 55 -50 146 -3 66 -1 84 11 88 8 4 15 11 15 16 0 6 7 25 16 44 9
19 14 41 10 49 -5 14 -9 14 -35 0 -40 -20 -46 -19 -59 11 -14 29 -7 68 18 104
9 14 17 32 17 42 0 21 -36 37 -71 31 -23 -5 -27 -10 -26 -42 0 -20 -3 -65 -7
-101 -6 -52 -12 -65 -27 -68 -35 -7 -41 14 -37 130 2 79 7 115 17 125 8 8 14
26 14 39 0 62 118 243 186 284 108 68 186 87 219 54 23 -24 15 -36 -46 -67
-43 -22 -62 -41 -93 -90 -46 -71 -76 -145 -76 -184 0 -21 3 -24 12 -15 7 7 19
12 28 12 27 0 97 84 129 154 27 59 43 77 60 67 11 -7 11 -17 -4 -60 -9 -29
-15 -55 -11 -58 5 -6 128 10 179 23 19 4 33 2 46 -10 10 -9 20 -13 24 -10 9 9
87 -6 87 -17 0 -6 -4 -7 -10 -4 -5 3 -10 -1 -10 -10 0 -17 44 -38 69 -33 12 2
15 13 13 39 -2 24 1 38 10 42 21 8 52 -20 55 -51 1 -15 3 -34 4 -42 4 -32 -2
-50 -16 -50 -8 0 -15 -3 -15 -7 0 -5 21 -9 48 -11 37 -2 52 2 70 19 13 11 35
24 50 28 19 5 28 15 30 32 4 40 -20 69 -88 106 -36 19 -74 43 -86 54 -11 10
-24 19 -28 19 -4 0 -29 18 -55 40 -44 37 -52 40 -104 39 -34 -1 -63 4 -73 11
-9 8 -36 13 -65 11 -54 -2 -63 10 -24 35 25 16 25 17 24 158 -2 127 1 149 24
216 22 65 23 77 11 94 -8 11 -14 43 -14 71 0 45 4 54 30 73 33 25 39 47 14 56
-26 10 -54 7 -52 -6 5 -21 -57 -13 -110 13 -35 18 -52 35 -67 66 -24 49 -45
75 -45 54 0 -7 -5 -9 -10 -6 -6 4 -17 1 -25 -5 -12 -10 -17 -7 -26 14 -15 33
1 92 35 129 26 28 99 53 119 40 6 -4 58 -8 114 -8 56 0 105 -3 109 -8 4 -4 7
-48 5 -97 -1 -69 1 -90 11 -90 15 0 53 -64 53 -89 1 -9 -3 -19 -8 -22 -5 -4
-2 -17 7 -31 17 -26 22 -99 11 -160 -5 -25 -3 -38 4 -38 6 0 11 -11 11 -24 0
-14 4 -27 9 -30 13 -8 21 -60 22 -149 1 -76 11 -99 31 -79 8 8 8 15 -1 26 -14
17 -4 66 13 63 6 -1 9 5 7 13 -2 8 -4 20 -5 25 -1 9 41 123 71 192 17 39 19
118 4 156 -6 16 -11 38 -11 49 0 12 53 127 118 257 65 130 126 256 137 281 11
25 59 118 107 208 88 163 97 185 78 197 -6 3 -10 -3 -10 -14 0 -11 -4 -23 -10
-26 -5 -3 -10 -14 -10 -23 0 -20 -40 -28 -41 -9 0 7 -7 -4 -14 -23 l-13 -35
-2 35 -2 35 -9 -30 c-8 -31 -1 54 9 105 3 14 7 95 9 180 2 85 8 168 13 184 7
21 7 32 -1 37 -8 5 -8 8 0 10 10 4 28 179 36 352 3 54 2 58 -18 55 -14 -2 -21
-11 -21 -29 -1 -14 -9 -33 -18 -43 -9 -9 -20 -38 -24 -64 -3 -26 -15 -81 -26
-122 -14 -54 -19 -108 -19 -194 1 -66 -3 -124 -8 -130 -4 -6 -11 -34 -15 -63
-9 -72 -26 -119 -37 -101 -6 8 -9 -7 -9 -39 0 -29 -4 -53 -9 -53 -23 0 -34
559 -13 680 7 41 24 163 38 270 32 258 50 369 74 462 24 94 25 112 3 148 -14
25 -15 37 -5 99 17 100 15 120 -13 157 -14 18 -25 38 -25 44 0 6 -7 22 -16 35
-9 14 -14 32 -10 40 3 9 0 15 -9 15 -7 0 -16 8 -19 18 -8 31 -6 136 4 171 8
29 6 41 -14 75 -13 23 -27 57 -30 76 -17 83 -27 95 -82 91 -45 -4 -118 99
-141 197 -7 31 -23 38 -22 10 1 -67 37 -264 59 -328 36 -102 63 -166 81 -188
10 -14 19 -31 19 -38 0 -15 -26 -20 -32 -6 -1 4 -21 16 -43 27 -57 28 -62 29
-48 14 20 -21 16 -41 -7 -34 -11 4 -20 2 -20 -4 0 -6 6 -11 14 -11 12 0 15
-21 18 -97 3 -54 12 -124 21 -155 9 -32 14 -64 11 -71 -3 -8 2 -21 10 -30 19
-19 21 -43 4 -51 -10 -5 -10 -7 0 -12 6 -3 12 -11 12 -19 0 -7 7 -18 15 -25
14 -11 14 -15 0 -37 -11 -16 -13 -28 -7 -36 6 -7 10 -48 10 -92 0 -44 7 -98
15 -121 9 -23 16 -79 17 -125 3 -141 1 -169 -13 -169 -7 0 -17 -12 -23 -26
l-9 -26 -27 22 c-16 12 -28 30 -28 40 0 10 -10 26 -21 34 -13 9 -19 21 -16 30
4 9 3 16 -1 16 -4 0 -15 12 -24 27 l-17 28 -10 -28 c-20 -53 -8 -189 21 -221
15 -17 9 -31 -21 -49 l-29 -17 -61 75 c-34 41 -61 79 -61 85 0 5 -4 10 -9 10
-4 0 -16 21 -26 48 -10 26 -22 51 -26 57 -5 5 -9 22 -9 38 0 15 -5 38 -11 49
-8 14 -11 112 -10 302 1 247 4 313 31 541 17 143 38 279 45 301 8 23 17 65 21
93 3 28 10 48 15 46 4 -3 6 9 3 27 -5 33 25 120 46 133 6 3 10 14 10 23 0 10
9 23 20 30 12 7 20 8 20 2 0 -5 5 -10 10 -10 6 0 10 8 10 18 1 73 103 240 139
227 9 -3 12 -3 8 1 -9 9 23 33 44 34 9 0 19 6 22 14 3 7 26 25 51 39 26 14 43
20 40 14 -4 -7 4 -2 18 11 13 12 29 22 35 22 6 0 13 6 16 14 4 9 18 12 42 10
21 -1 48 2 62 7 13 5 22 5 19 0 -6 -9 37 -53 50 -50 21 4 26 -2 14 -16 -6 -8
-9 -23 -5 -35 7 -21 8 -21 28 7 21 30 64 57 69 42 2 -4 34 35 71 86 71 98 92
148 123 288 24 105 44 122 44 36 0 -35 7 -102 15 -149 8 -47 15 -104 15 -126
0 -29 5 -44 16 -48 35 -13 35 -13 34 148 -1 92 1 107 13 98 8 -7 17 -8 21 -4
4 4 13 7 18 7 6 0 13 6 15 13 3 6 -2 12 -11 12 -19 0 -19 2 -5 32 11 26 -7
111 -36 167 -17 33 -12 71 8 71 14 0 29 -22 66 -95 45 -87 56 -98 81 -85 19
10 21 17 14 43 -4 18 -8 68 -8 112 l-1 80 130 16 c131 16 200 32 211 50 3 6
-58 9 -163 7 -159 -2 -171 -1 -199 19 -39 28 -102 111 -140 183 -16 30 -41 67
-56 82 -16 14 -28 32 -28 40 0 8 -11 20 -25 26 -15 7 -25 20 -25 32 0 11 -6
20 -12 20 -16 0 -99 77 -115 107 -7 13 -13 30 -13 38 0 9 -4 13 -10 10 -5 -3
-10 0 -10 8 0 8 -7 28 -15 45 -14 28 -14 41 0 137 12 79 13 120 6 166 -13 77
-6 97 32 90 5 -1 5 8 2 20 -10 30 21 103 50 119 18 10 51 11 128 6 115 -7 137
-3 137 26 0 22 -53 48 -99 48 -16 0 -59 14 -96 30 -37 17 -73 30 -81 30 -21 0
-26 39 -21 154 4 88 8 108 26 127 11 13 21 29 21 37 0 8 7 28 15 46 22 45 76
66 174 66 44 0 81 4 83 9 2 5 22 11 45 15 24 3 66 12 95 20 29 8 91 16 138 17
127 2 180 9 180 25 0 8 8 14 18 14 30 0 117 -30 127 -44 6 -7 20 -18 33 -25
12 -6 22 -16 22 -21 0 -6 14 -24 30 -42 17 -17 30 -42 30 -54 0 -13 4 -24 8
-24 12 0 32 -62 32 -98 0 -18 8 -39 19 -49 38 -37 73 -168 82 -313 5 -74 13
-171 18 -215 7 -58 6 -82 -2 -87 -18 -11 -37 -109 -25 -132 6 -10 7 -35 4 -55
-4 -20 -11 -85 -16 -146 -5 -60 -16 -129 -24 -153 -12 -32 -12 -42 -3 -40 18
6 36 87 48 213 6 61 22 183 35 272 13 88 24 179 24 200 0 21 7 49 16 61 16 23
16 23 30 3 13 -18 16 -18 44 -4 28 13 33 13 55 -1 30 -20 39 -61 39 -191 0
-74 -5 -108 -17 -132 -23 -43 -113 -145 -142 -160 l-23 -13 19 -50 c25 -66 24
-83 -7 -141 -25 -45 -72 -77 -117 -80 -6 0 -26 -22 -44 -50 -28 -43 -29 -49
-13 -49 10 0 21 8 23 18 3 9 5 -31 4 -91 -1 -59 0 -107 3 -107 3 0 5 -12 5
-27 0 -16 4 -55 8 -88 5 -45 4 -56 -4 -45 -9 13 -10 12 -5 -3 9 -28 10 -27
-207 -319 -48 -65 -87 -121 -87 -126 0 -17 -66 -70 -107 -85 -38 -15 -83 -48
-83 -62 0 -2 -20 -26 -45 -52 -24 -26 -45 -57 -45 -68 0 -11 -20 -41 -45 -67
-41 -44 -43 -50 -34 -78 14 -38 21 -38 43 3 9 17 24 44 32 58 7 15 37 51 64
80 28 30 53 64 56 76 3 12 13 25 22 28 21 6 77 59 99 91 9 14 35 36 58 50 30
17 48 37 59 64 16 41 106 185 178 285 24 33 49 71 57 85 20 35 44 128 43 169
l-1 33 22 -20 c12 -12 65 -72 117 -135 l95 -115 100 -26 c55 -14 109 -26 121
-26 11 0 63 -11 115 -25 99 -26 398 -88 484 -100 28 -4 69 -18 93 -32 39 -22
42 -23 42 -5 0 25 56 101 81 111 20 7 19 9 -15 34 -82 63 -72 202 20 254 103
59 234 -15 234 -133 0 -44 -31 -106 -67 -133 l-28 -21 29 -22 c91 -69 66 -230
-42 -266 l-43 -14 40 -40 c22 -21 45 -55 52 -75 6 -19 29 -67 51 -106 47 -82
69 -144 93 -253 10 -44 30 -123 46 -177 48 -166 169 -747 169 -816 0 -11 23
-92 50 -180 62 -197 92 -330 126 -559 23 -159 26 -205 25 -447 -1 -148 0 -306
1 -350 3 -106 -5 -184 -17 -182 -12 2 -12 -114 -1 -195 11 -75 5 -91 -30 -78
-15 6 -42 23 -60 38 -77 63 -107 89 -137 115 -18 16 -69 47 -115 69 -76 38
-92 42 -181 46 -83 4 -104 1 -144 -16 -52 -23 -107 -90 -107 -131 0 -33 14
-17 28 34 37 129 285 136 445 12 34 -26 37 -33 37 -78 0 -35 -9 -66 -32 -111
-17 -35 -35 -64 -40 -66 -4 -2 -8 -10 -8 -18 0 -8 -4 -14 -10 -14 -5 0 -10 -9
-10 -21 0 -11 -9 -32 -20 -46 -11 -14 -20 -32 -20 -39 0 -8 -4 -22 -9 -32 -25
-45 -81 -172 -81 -182 0 -6 -4 -9 -9 -6 -4 3 -6 -7 -4 -22 l5 -27 -26 30 c-14
17 -25 33 -26 37 0 15 -47 32 -102 38 -45 4 -55 3 -46 -7 8 -10 6 -13 -5 -13
-9 0 -20 6 -24 13 -4 6 -12 12 -18 12 -5 1 -45 5 -88 9 -70 8 -79 11 -91 35
-49 94 -14 192 84 236 36 16 40 23 51 74 7 31 13 119 15 196 4 243 9 298 27
332 9 18 17 51 17 74 0 37 -5 46 -39 76 -30 25 -45 49 -62 101 -12 37 -39 100
-60 140 -45 84 -48 118 -28 348 17 201 16 220 -19 295 -17 37 -50 124 -73 195
-53 168 -52 164 -56 137 -3 -12 1 -31 6 -42 6 -11 11 -44 11 -73 1 -45 5 -57
30 -82 74 -73 73 -165 -6 -386 l-59 -165 1 -112 c1 -72 7 -127 17 -155 12 -32
17 -102 21 -274 3 -166 9 -241 19 -265 40 -97 41 -127 7 -296 -17 -87 -38
-168 -46 -180 -21 -33 -18 -139 6 -188 21 -44 26 -85 10 -85 -5 0 -10 -11 -10
-25 0 -13 -8 -28 -17 -34 -14 -7 -17 -25 -18 -85 -1 -69 -4 -79 -34 -116 -32
-40 -36 -81 -8 -79 12 0 109 141 115 166 2 7 7 13 11 13 4 0 16 19 27 41 l18
41 59 -5 c50 -4 65 -11 93 -38 19 -18 34 -40 34 -49 0 -9 9 -33 20 -55 11 -22
20 -47 20 -57 0 -10 7 -18 15 -18 8 0 15 -4 15 -9 0 -5 8 -8 18 -7 23 4 52
-43 41 -66 -5 -9 -9 -26 -9 -37 0 -12 -4 -21 -10 -21 -5 0 -10 -9 -10 -21 0
-11 -8 -33 -18 -47 -10 -15 -24 -42 -32 -60 -7 -18 -20 -38 -29 -45 -15 -11
-51 -75 -51 -92 0 -16 -32 -36 -63 -39 -44 -4 -57 -13 -57 -37 0 -10 -4 -19
-9 -19 -5 0 -12 -14 -16 -30 -4 -17 -20 -43 -35 -58 -16 -15 -42 -62 -60 -109
-17 -46 -35 -85 -39 -88 -5 -2 -23 32 -40 78 -18 45 -36 91 -41 102 -20 43
-82 204 -106 271 -21 59 -29 73 -50 77 -13 2 -26 1 -29 -3 -2 -3 -3 -67 -1
-141 2 -74 0 -143 -4 -154 -7 -17 -11 -14 -29 25 -11 25 -21 55 -21 68 0 44
-32 152 -45 152 -20 0 -32 -22 -38 -70 -12 -94 -20 -126 -35 -142 -22 -25 -47
-22 -70 9 -23 31 -42 24 -42 -16 0 -38 -19 -51 -66 -48 -29 1 -39 -2 -39 -13
0 -18 11 -19 242 -28 153 -6 175 -9 200 -28 17 -13 28 -30 28 -45 0 -21 -6
-25 -46 -29 -25 -3 -57 -13 -71 -22 -24 -16 -25 -21 -21 -79 4 -46 -3 -94 -23
-180 -29 -125 -28 -151 5 -142 24 6 28 -9 8 -29 -8 -7 -21 -29 -31 -48 -19
-41 -69 -100 -84 -100 -10 0 -32 -59 -32 -86 0 -7 -7 -14 -15 -18 -9 -3 -15
-18 -15 -40 0 -46 -29 -65 -55 -37 -25 29 -16 65 18 69 33 4 33 6 6 62 l-21
44 22 18 c13 10 20 24 16 33 -9 24 -26 17 -37 -15 -6 -16 -15 -30 -19 -30 -14
0 -60 60 -60 78 0 9 -13 26 -28 36 -27 18 -72 74 -72 89 0 14 20 6 44 -18 14
-14 29 -25 34 -25 5 0 7 25 4 55 -3 43 -1 60 13 75 9 10 19 36 22 58 4 32 1
43 -18 62 l-24 22 23 15 c26 18 97 112 90 119 -6 5 -133 23 -223 30 -33 3 -71
10 -85 15 -20 7 -43 2 -115 -27 -49 -20 -108 -45 -130 -57 -71 -36 -251 -96
-338 -112 -47 -9 -116 -25 -153 -35 -38 -11 -70 -20 -71 -20 -2 0 -3 19 -3 43
0 23 -7 64 -15 91 -8 27 -15 63 -15 80 0 17 -15 91 -33 164 l-34 133 -6 -99
c-4 -55 -16 -129 -27 -166 -11 -36 -24 -106 -29 -156 -5 -50 -12 -95 -17 -100
-5 -5 -33 0 -64 12 -76 27 -151 48 -178 48 -27 0 -93 32 -111 54 -20 24 -31
19 -31 -12 0 -16 -3 -31 -6 -34 -11 -12 -42 5 -53 28 -12 27 -52 47 -113 58
-33 6 -37 5 -31 -11 3 -10 12 -25 19 -33 7 -8 15 -27 19 -42 4 -16 18 -31 36
-38 23 -10 27 -16 19 -30 -5 -9 -24 -20 -42 -24 -35 -7 -78 -42 -78 -63 0 -16
5 -16 54 1 38 13 80 11 71 -4 -2 -4 5 -24 17 -46 32 -59 49 -133 37 -157 -6
-11 -8 -38 -4 -62 5 -39 4 -44 -17 -50 -12 -4 -28 -14 -36 -21 -11 -12 -9 -16
13 -26 l26 -11 -32 -30 c-30 -27 -39 -29 -126 -33 -94 -3 -150 -20 -146 -42 2
-6 5 -55 7 -108 3 -67 9 -100 20 -112 11 -13 14 -31 9 -73 l-6 -56 33 -12 c64
-22 120 -6 120 34 0 7 2 20 5 27 4 9 -4 19 -20 26 -35 16 -31 32 8 32 46 0 54
20 47 115 -4 49 -2 88 4 100 6 11 9 24 8 28 -1 5 2 6 8 2 6 -4 10 -52 10 -116
0 -68 5 -117 12 -129 10 -16 9 -23 -11 -44 -24 -26 -24 -26 -6 -60 11 -19 23
-33 27 -30 11 7 -12 -47 -29 -67 -15 -18 0 -39 29 -39 21 0 58 55 58 87 0 26
34 40 55 23 8 -7 29 -10 46 -8 33 5 51 -14 30 -35 -8 -8 -14 -8 -23 1 -19 19
-26 14 -37 -26 -18 -61 -15 -72 19 -72 17 0 33 6 36 14 8 21 94 25 609 32 259
3 508 10 555 16 102 12 141 12 287 3 61 -4 123 -5 137 -1 23 6 26 11 26 52 0
37 4 46 23 53 31 12 44 -2 44 -49 0 -23 4 -44 7 -48 4 -4 150 -7 324 -8 175 0
421 -4 547 -8 l230 -7 58 55 c32 30 73 60 91 66 35 11 258 8 287 -4 11 -5 22
-1 30 9 55 68 66 75 122 75 43 0 62 -5 93 -28 72 -53 164 -186 164 -238 0 -13
10 -43 22 -68 l21 -44 -26 -32 c-15 -17 -27 -36 -27 -41 0 -7 81 -8 223 -5
122 3 233 5 247 5 14 1 59 -2 100 -5 l75 -5 22 35 c40 63 60 67 291 69 188 1
210 -1 242 -18 34 -19 60 -23 275 -42 50 -5 99 -14 110 -20 12 -6 70 -11 141
-11 67 1 127 -2 133 -6 8 -5 11 235 11 908 0 905 0 915 -20 926 -36 19 -63 88
-57 141 3 26 2 61 -2 76 -16 57 22 101 59 68 20 -18 20 -15 20 444 l0 462 -93
-2 c-51 -1 -99 1 -105 5 -7 4 -36 10 -65 13 -67 7 -87 18 -87 48 0 41 -18 37
-39 -9 -25 -59 -47 -64 -175 -42 -124 21 -156 33 -156 57 0 11 -4 19 -10 19
-5 0 -10 8 -10 18 0 9 -9 32 -20 50 -58 95 14 196 155 217 40 6 48 12 57 35
10 30 36 46 50 32 5 -5 12 -26 15 -48 3 -21 16 -52 29 -69 12 -16 30 -50 40
-75 28 -72 54 -77 54 -10 0 65 49 89 114 55 15 -8 41 -15 57 -15 27 0 141 24
173 36 14 6 16 307 16 3130 l0 3124 -2715 0 c-1493 0 -2715 -1 -2715 -3 0 -1
9 -20 20 -42 25 -50 25 -95 0 -145 -36 -71 -139 -101 -213 -64 -44 23 -53 34
-72 90 -19 52 -17 59 33 157 2 4 -883 7 -1967 7 l-1971 0 0 -569z m5234 534
c55 -32 81 -85 73 -150 -5 -45 -20 -75 -33 -63 -3 4 -7 32 -9 63 -2 31 -8 62
-14 68 -8 8 -9 -6 -5 -51 5 -44 3 -62 -5 -62 -6 0 -11 15 -12 33 l-1 32 -8
-34 c-5 -19 -6 -40 -3 -48 3 -7 2 -24 -1 -38 -6 -23 -11 -25 -62 -25 -39 0
-56 4 -60 15 -4 8 -16 15 -29 15 -44 0 -84 101 -63 161 6 19 17 40 24 46 7 7
14 17 16 23 5 15 76 39 116 40 18 0 53 -11 76 -25z m-441 -85 c52 -32 69 -63
71 -125 l1 -40 -120 -2 c-163 -3 -271 -29 -409 -100 -57 -29 -64 -25 -81 44
-24 94 25 172 121 193 44 10 86 -3 136 -41 43 -34 48 -35 48 -11 0 28 58 91
93 101 58 17 92 12 140 -19z m401 -276 c17 -16 21 -34 9 -34 -10 1 -53 36 -53
44 0 12 29 6 44 -10z m83 -96 c-3 -8 -6 -5 -6 6 -1 11 2 17 5 13 3 -3 4 -12 1
-19z m-1842 -31 c49 -28 70 -67 70 -134 0 -42 -5 -58 -31 -89 -72 -89 -214
-74 -259 26 -10 23 -18 54 -18 69 0 34 25 90 50 114 47 42 128 48 188 14z
m-2589 -26 c86 -39 111 -126 58 -207 -51 -79 -122 -106 -190 -73 -71 34 -100
115 -70 193 20 52 39 71 92 90 52 19 62 19 110 -3z m7641 -48 c19 -9 46 -34
60 -56 67 -107 -32 -257 -139 -212 -68 28 -115 89 -120 156 -3 31 21 91 33 83
5 -3 9 -1 9 5 0 16 52 40 88 41 19 0 50 -7 69 -17z m-1689 -110 c52 -24 77
-53 92 -109 13 -45 12 -50 -12 -93 -32 -58 -64 -82 -115 -84 -92 -3 -168 66
-168 152 0 62 36 116 90 135 53 19 70 19 113 -1z m840 -14 c54 -27 82 -70 82
-127 0 -81 -60 -152 -129 -152 -71 0 -161 90 -161 162 0 43 53 123 76 114 8
-3 12 -2 9 3 -5 9 15 14 64 20 8 0 35 -9 59 -20z m-1721 -24 c135 -80 85 -285
-70 -285 -75 0 -165 73 -153 124 3 11 1 27 -5 37 -7 14 -4 29 10 57 45 89 134
116 218 67z m-5037 -189 c64 -42 73 -126 24 -202 -24 -35 -87 -74 -122 -74
-89 0 -147 60 -147 152 0 48 5 62 31 95 54 67 139 79 214 29z m1733 -23 c125
-80 59 -277 -93 -277 -120 0 -190 125 -130 232 21 37 47 55 110 76 25 8 73 -5
113 -31z m-957 -8 c80 -47 89 -173 15 -239 -24 -22 -27 -36 -8 -36 22 0 54
-42 68 -87 10 -36 9 -49 -5 -88 -20 -52 -76 -102 -124 -111 -46 -9 -116 20
-144 59 -18 24 -23 46 -23 93 0 51 4 66 29 98 l29 38 -27 23 c-32 27 -59 105
-50 144 27 114 140 165 240 106z m5987 -86 c68 -44 86 -138 42 -214 -37 -62
-104 -86 -171 -60 -81 31 -133 118 -113 190 29 103 149 144 242 84z m-1808
-24 c32 -18 48 -37 65 -76 20 -48 21 -56 9 -93 -38 -113 -159 -149 -255 -74
-81 64 -65 206 29 249 57 25 102 24 152 -6z m898 -26 c69 -45 87 -141 40 -215
-23 -35 -36 -45 -78 -57 -99 -28 -191 34 -202 135 -15 130 127 210 240 137z
m-2750 -136 c9 -65 20 -130 23 -145 8 -34 -12 -37 -65 -10 -94 47 -109 178
-29 252 44 40 52 29 71 -97z m-563 -25 c51 -30 74 -71 75 -134 1 -114 -120
-188 -223 -135 -49 25 -68 48 -82 99 -35 132 110 239 230 170z m-2519 -14 c67
-34 86 -75 70 -151 -15 -65 -72 -129 -126 -139 -49 -9 -118 19 -146 58 -32 44
-36 115 -11 164 25 48 40 62 89 80 53 19 67 17 124 -12z m7453 -36 c136 -66
99 -288 -49 -288 -81 0 -162 100 -152 188 6 52 35 87 93 107 52 19 56 18 108
-7z m-1556 -112 c36 -18 53 -35 65 -63 25 -55 24 -85 -2 -142 -19 -40 -32 -53
-63 -66 -84 -33 -172 -6 -209 67 -27 52 -27 94 1 147 15 31 33 48 63 62 56 25
88 24 145 -5z m693 0 c46 -19 75 -52 89 -103 15 -50 9 -77 -29 -129 -22 -31
-40 -44 -74 -54 -42 -11 -50 -10 -91 10 -50 23 -76 54 -96 112 -12 33 -11 40
14 91 21 43 35 58 64 71 47 19 81 20 123 2z m-5730 -144 c44 -28 69 -74 69
-126 0 -28 -37 -92 -70 -119 -86 -73 -214 -17 -236 103 -10 52 28 119 86 148
59 29 97 28 151 -6z m1724 -27 c45 -26 75 -79 75 -133 0 -38 -54 -120 -87
-133 -91 -36 -177 -8 -213 67 -26 56 -25 97 3 147 41 74 143 99 222 52z
m-2573 -67 c70 -39 87 -112 47 -195 -43 -89 -137 -119 -213 -67 -124 85 -60
283 93 284 18 0 51 -10 73 -22z m1762 -9 c136 -67 80 -279 -74 -279 -62 0
-114 31 -134 80 -22 55 -20 97 7 145 40 72 119 93 201 54z m5686 4 c30 -13 46
-29 59 -58 27 -56 34 -85 22 -85 -5 0 -12 8 -14 18 -3 10 -5 6 -6 -11 -1 -17
3 -26 9 -22 6 3 10 1 10 -4 0 -6 -8 -11 -17 -11 -14 0 -15 -2 -4 -9 10 -7 11
-13 2 -30 -7 -11 -13 -21 -15 -21 -6 0 0 125 6 135 4 6 3 17 -3 25 -7 13 -9
12 -9 -2 0 -11 -8 -18 -20 -18 -17 0 -20 7 -20 40 0 38 -1 40 -32 40 -26 0
-30 3 -18 11 11 7 1 8 -35 4 -37 -5 -46 -4 -35 4 23 16 75 13 120 -6z m-134
-17 c3 -7 -4 -29 -15 -47 -23 -38 -28 -28 -6 11 19 33 19 46 0 30 -8 -7 -15
-19 -15 -26 0 -8 -4 -14 -10 -14 -5 0 -10 -8 -11 -17 0 -11 -3 -13 -6 -6 -5
15 34 83 48 83 5 0 12 -6 15 -14z m-2846 -16 c0 -5 -5 -10 -11 -10 -5 0 -7 5
-4 10 3 6 8 10 11 10 2 0 4 -4 4 -10z m2850 -185 c0 -2 3 -12 7 -22 4 -12 -2
-9 -20 10 -32 33 -34 42 -7 27 11 -6 20 -12 20 -15z m-6615 -16 c53 -26 75
-64 75 -126 0 -84 -66 -153 -146 -153 -15 0 -46 11 -70 25 -33 19 -45 35 -58
72 -17 51 -20 74 -8 72 18 -3 26 2 14 10 -11 7 -11 14 3 42 19 36 32 47 80 66
44 17 63 15 110 -8z m6740 -29 c-27 -12 -43 -12 -25 0 8 5 22 9 30 9 10 0 8
-3 -5 -9z m-7475 -60 c58 -30 73 -58 68 -129 -5 -69 -42 -135 -86 -152 -80
-32 -167 6 -197 85 -53 139 84 263 215 196z m6639 -145 c97 -53 114 -169 36
-251 -14 -15 -73 -34 -104 -34 -38 0 -102 40 -121 75 -30 54 -32 93 -8 142 26
52 36 61 85 79 52 18 59 18 112 -11z m-4132 -240 c38 -19 54 -35 68 -65 22
-50 16 -116 -15 -160 -65 -91 -217 -74 -261 28 -24 55 -24 76 2 128 24 50 37
62 86 80 53 18 62 17 120 -11z m5083 -15 c72 -37 100 -132 61 -208 -25 -50
-48 -68 -99 -82 -39 -10 -49 -9 -90 12 -113 56 -125 237 -19 283 46 20 102 18
147 -5z m-6816 -293 c59 -33 81 -69 81 -131 0 -64 -31 -115 -84 -138 l-35 -15
39 -21 c55 -27 72 -49 85 -106 10 -44 8 -54 -12 -95 -33 -65 -79 -94 -144 -89
-87 7 -144 68 -144 155 0 52 37 110 82 130 41 18 49 33 18 33 -11 0 -20 4 -20
9 0 5 -9 12 -19 16 -22 7 -61 83 -61 120 0 29 31 95 53 113 17 14 85 40 107
41 8 0 33 -9 54 -22z m6778 -52 c65 -43 85 -132 46 -199 -46 -79 -122 -105
-194 -68 -50 26 -57 35 -80 98 -15 44 -16 58 -6 92 16 54 39 80 87 97 51 19
98 13 147 -20z m-4969 -27 c96 -62 86 -222 -16 -269 -55 -25 -90 -24 -145 4
-71 35 -101 123 -68 200 17 41 44 65 93 83 48 18 91 12 136 -18z m705 -194
c12 -4 22 -10 22 -15 0 -19 -214 -148 -226 -136 -11 11 44 115 67 128 49 26
96 34 137 23z m4217 -149 c45 -22 56 -32 70 -69 9 -24 15 -54 13 -67 l-5 -24
-11 25 c-7 17 -11 20 -11 8 -1 -9 4 -28 10 -42 10 -20 9 -30 -4 -49 -20 -30
-51 -32 -42 -3 3 12 8 35 10 51 3 22 2 20 -6 -7 -24 -82 -54 -26 -44 81 6 74
6 77 -17 89 -16 9 -32 9 -53 2 -27 -9 -27 -9 10 -4 l40 6 -24 -21 c-22 -19
-42 -25 -78 -24 -8 1 -11 -7 -7 -22 4 -18 2 -23 -13 -22 -15 2 -18 -6 -19 -43
l-2 -45 8 45 7 45 1 -42 c1 -23 7 -45 12 -48 6 -3 10 -22 10 -42 l0 -36 -18
24 c-22 28 -42 83 -42 114 0 12 10 41 23 65 19 36 32 47 73 62 27 9 50 17 52
18 2 0 27 -11 57 -25z m-4398 -26 c-22 -11 -41 -18 -44 -15 -4 3 9 12 28 20
50 22 60 18 16 -5z m-1340 -50 c24 -15 37 -34 49 -74 17 -53 17 -53 -8 -101
-26 -49 -66 -81 -109 -84 -37 -3 -45 -1 -29 10 13 8 13 10 -2 10 -9 0 -20 -5
-23 -10 -5 -8 -11 -7 -21 1 -14 12 -9 33 6 24 5 -3 11 -1 15 5 3 5 -3 10 -14
10 -12 0 -21 7 -21 15 0 17 -46 39 -61 29 -5 -3 -9 1 -9 10 0 8 -3 21 -6 30
-3 9 -1 16 5 16 6 0 11 -9 11 -20 0 -15 7 -20 25 -20 14 0 25 5 25 10 0 6 -6
10 -14 10 -25 0 -29 21 -6 27 19 5 21 11 15 39 -5 28 -3 33 10 27 14 -5 16 0
13 23 -3 25 1 30 32 40 38 13 62 7 117 -27z m-167 4 c-1 -15 -30 -46 -37 -40
-3 4 2 16 12 27 19 21 25 24 25 13z m5187 -81 c35 -22 44 -35 57 -83 13 -44
14 -63 6 -85 -33 -86 -113 -135 -188 -115 -158 43 -156 272 3 312 41 10 72 3
122 -29z m-5227 1 c0 -20 -3 -24 -11 -16 -7 7 -9 19 -6 27 10 24 17 19 17 -11z
m26 -10 c-10 -10 -19 5 -10 18 6 11 8 11 12 0 2 -7 1 -15 -2 -18z m-771 -56
c103 -58 98 -219 -8 -268 -54 -24 -87 -24 -136 2 -70 36 -100 110 -75 183 33
95 131 133 219 83z m779 -70 c-6 -16 -34 -13 -34 4 0 4 7 6 15 3 8 -4 15 -1
15 7 0 7 2 10 5 7 3 -3 3 -12 -1 -21z m5883 10 c-24 -6 -47 -6 -59 0 -15 7 -6
9 38 10 57 0 58 0 21 -10z m-6642 -353 c72 -46 91 -122 50 -203 -20 -41 -35
-57 -68 -72 -57 -25 -92 -24 -145 7 -46 27 -82 85 -82 134 0 32 32 100 56 121
51 44 131 49 189 13z m978 -201 c38 -24 54 -52 64 -111 8 -49 -31 -127 -73
-147 -62 -29 -90 -29 -148 -1 -44 21 -57 34 -70 66 -21 53 -20 93 3 138 25 50
49 70 97 80 49 12 79 6 127 -25z m937 -39 c0 -44 -12 -58 -24 -28 -8 21 -8 69
0 77 14 14 24 -6 24 -49z m-2826 32 c40 -17 72 -59 81 -109 16 -86 -26 -158
-107 -179 -42 -11 -50 -10 -95 13 -32 16 -54 36 -65 59 -40 78 -9 177 65 211
50 22 77 24 121 5z m7569 -200 c57 -24 84 -58 92 -114 6 -43 3 -60 -15 -97
-32 -66 -112 -100 -166 -72 l-27 14 32 6 c26 6 31 11 31 35 0 16 9 37 19 46
10 10 22 33 25 52 5 25 12 34 26 34 11 0 20 4 20 9 0 5 -8 7 -17 5 -10 -2 -31
0 -48 4 l-30 9 38 8 c49 10 55 22 15 30 -18 4 -39 12 -46 18 -7 5 -15 7 -19 3
-3 -3 -1 -6 5 -6 7 0 12 -6 12 -14 0 -10 -14 -16 -42 -18 -39 -3 -43 -5 -40
-28 1 -17 -1 -21 -6 -12 -7 10 -11 10 -22 -2 -16 -20 -5 -90 13 -79 7 4 7 0
-2 -10 -12 -16 -8 -22 12 -18 5 1 6 -8 2 -19 -5 -15 -1 -22 16 -28 17 -7 19
-10 7 -14 -20 -8 -32 1 -52 39 -31 61 -15 141 39 201 4 5 78 31 88 32 4 0 22
-6 40 -14z m-4663 -148 c0 -19 -2 -20 -10 -8 -13 19 -13 30 0 30 6 0 10 -10
10 -22z m-2814 -49 c36 -33 54 -79 54 -137 0 -117 -115 -186 -220 -132 -105
54 -105 225 0 282 49 27 130 20 166 -13z m6799 -34 c73 -42 94 -120 53 -201
-15 -32 -33 -50 -63 -64 -51 -25 -78 -25 -132 -1 -106 49 -109 216 -5 270 50
27 97 26 147 -4z m-4924 -301 c167 -91 47 -349 -129 -279 -127 51 -135 221
-12 283 57 28 82 28 141 -4z m-1840 -1 c13 -15 12 -15 -8 -5 -31 17 -43 15
-37 -5 5 -14 4 -15 -4 -4 -6 8 -20 12 -36 9 -32 -6 -34 0 -3 12 35 14 73 11
88 -7z m-156 -68 c-15 -28 -21 -51 -15 -55 11 -7 2 -50 -11 -50 -9 0 -5 76 6
105 9 22 36 57 41 52 2 -2 -8 -25 -21 -52z m210 26 c-6 -5 -25 10 -25 20 0 5
6 4 14 -3 8 -7 12 -15 11 -17z m6535 6 c45 -23 72 -59 85 -115 8 -39 -26 -115
-66 -143 -72 -51 -180 -24 -215 54 -39 86 -3 182 78 210 57 20 65 20 118 -6z
m-6723 -49 c-3 -8 -6 -5 -6 6 -1 11 2 17 5 13 3 -3 4 -12 1 -19z m223 -62 c0
-51 -6 -43 -14 19 -4 34 -3 45 4 35 5 -8 10 -33 10 -54z m-232 -8 c-3 -29 -3
-45 -1 -35 6 22 27 17 31 -6 3 -13 -4 -17 -26 -17 -30 0 -30 1 -21 35 6 20 7
45 4 55 -4 12 -2 20 6 20 8 0 10 -15 7 -52z m190 -82 c-22 -21 -22 -21 -6 -1
10 12 15 31 12 45 l-5 25 11 -24 c9 -21 7 -28 -12 -45z m-148 -2 c0 -2 -9 -4
-20 -4 -11 0 -20 4 -20 9 0 5 9 7 20 4 11 -3 20 -7 20 -9z m885 -35 c39 -24
100 -88 120 -125 22 -43 18 -112 -9 -159 -44 -78 -170 -104 -253 -54 -37 23
-67 93 -76 179 -3 30 -2 44 1 31 8 -25 8 -25 24 9 9 19 14 39 10 44 -3 6 -9 0
-12 -14 -3 -14 -9 -20 -12 -14 -7 10 9 66 25 91 11 18 98 42 127 36 14 -3 39
-14 55 -24z m-815 17 c0 -3 -4 -8 -10 -11 -5 -3 -10 -1 -10 4 0 6 5 11 10 11
6 0 10 -2 10 -4z m21 -159 c82 -55 104 -157 54 -244 -14 -23 -31 -43 -38 -43
-37 -1 -36 -18 3 -60 22 -24 40 -52 40 -62 0 -12 4 -16 12 -12 8 5 9 2 4 -12
-5 -10 -12 -33 -16 -49 -14 -62 -62 -115 -101 -115 -24 0 -24 -11 2 -54 30
-52 30 -122 0 -165 -46 -64 -123 -77 -200 -35 -40 21 -50 33 -65 75 -29 80 0
163 69 196 38 18 42 28 21 59 -27 37 -28 85 -4 143 22 52 32 63 71 75 16 5 15
9 -14 33 -58 49 -76 139 -43 209 37 77 137 107 205 61z m7467 -52 l16 -20 -21
20 c-12 11 -24 34 -27 50 l-6 30 11 -30 c6 -16 19 -39 27 -50z m69 -95 c48
-27 54 -35 68 -85 16 -54 16 -56 -8 -108 -26 -57 -65 -89 -125 -102 -43 -9
-117 27 -144 69 -45 72 0 207 80 240 53 21 70 20 129 -14z m-6613 -100 c50
-25 72 -53 88 -115 12 -43 11 -50 -12 -92 -31 -59 -66 -84 -122 -90 -179 -20
-243 242 -73 302 54 19 72 18 119 -5z m1439 -92 c9 -6 9 -8 0 -8 -7 0 -13 -12
-13 -27 0 -46 -7 -20 -13 47 -4 54 -4 59 5 30 5 -19 15 -38 21 -42z m-383 47
c36 -18 38 -25 8 -18 -21 4 -21 3 -6 -9 15 -13 12 -14 -20 -15 -26 0 -31 2
-17 7 15 5 11 8 -20 13 -47 8 -84 -13 -44 -24 17 -5 11 -7 -18 -5 l-42 1 23
24 c19 19 58 35 99 40 4 1 21 -6 37 -14z m-1905 -49 c10 -25 15 -50 12 -58 -4
-10 -6 -10 -9 2 -3 8 -12 37 -21 63 -20 59 -5 53 18 -7z m1832 18 c-3 -3 -12
-4 -19 -1 -8 3 -5 6 6 6 11 1 17 -2 13 -5z m6355 -40 c4 -17 21 -42 38 -57 18
-17 30 -37 30 -52 0 -29 -8 -30 -56 -10 -20 8 -55 17 -79 20 -38 6 -45 3 -64
-21 -12 -15 -35 -36 -51 -46 -30 -18 -60 -73 -60 -112 -1 -21 -1 -21 -20 3
-11 13 -20 38 -20 55 0 34 0 34 109 132 30 27 70 66 90 87 43 45 71 45 83 1z
m-6196 -9 c16 -39 19 -95 5 -95 -5 0 -12 8 -15 18 -3 9 -3 1 -1 -18 3 -19 1
-41 -4 -48 -5 -8 -9 9 -10 43 -1 41 2 55 10 49 21 -13 0 47 -24 67 l-22 18 23
1 c17 0 27 -9 38 -35z m-269 -77 c-2 -13 -4 -5 -4 17 -1 22 1 32 4 23 2 -10 2
-28 0 -40z m587 11 c-8 -14 -24 -10 -24 6 0 9 6 12 15 9 8 -4 12 -10 9 -15z
m57 -55 c6 -8 17 -14 25 -14 7 0 19 -8 26 -17 16 -22 107 -69 125 -65 7 1 23
-4 36 -13 13 -8 26 -12 30 -9 11 11 75 -17 79 -34 4 -14 -2 -18 -24 -20 -16
-1 -38 2 -49 8 -15 8 -23 7 -35 -5 -17 -17 -50 -20 -58 -6 -4 5 3 7 14 4 30
-8 16 21 -18 38 -15 7 -39 21 -54 31 -14 10 -36 18 -48 18 -14 0 -24 8 -27 21
-3 12 -11 18 -19 15 -9 -4 -14 2 -15 17 -1 17 -2 18 -6 5 -6 -22 -19 -23 -27
-3 -3 8 -12 15 -21 15 -8 0 -15 2 -15 4 0 2 -2 10 -5 18 -7 19 70 11 86 -8z
m5147 4 c57 -29 82 -68 82 -132 0 -62 -30 -117 -80 -145 -48 -27 -92 -27 -146
0 -34 16 -46 29 -60 64 -29 78 11 176 88 214 54 26 60 26 116 -1z m-5708 -22
c0 -11 -19 -15 -25 -6 -3 5 1 10 9 10 9 0 16 -2 16 -4z m861 -13 c17 -17 2
-33 -30 -33 -29 0 -57 22 -48 37 8 12 65 9 78 -4z m-855 -41 c-4 -3 -14 2 -24
12 -16 18 -16 18 6 6 13 -6 21 -14 18 -18z m41 22 c-3 -3 -12 -4 -19 -1 -8 3
-5 6 6 6 11 1 17 -2 13 -5z m93 -9 c-14 -8 -32 -14 -40 -14 -19 -1 30 27 50
28 8 0 4 -6 -10 -14z m-1177 -29 c46 -20 78 -59 92 -113 12 -44 11 -52 -12
-96 -18 -37 -34 -53 -66 -68 -54 -24 -77 -24 -133 3 -76 35 -105 127 -65 207
23 44 40 59 78 71 42 12 70 12 106 -4z m7547 -80 c-15 -43 -106 -138 -127
-134 -39 7 -25 40 46 108 39 37 71 76 72 86 0 15 2 14 10 -5 6 -16 6 -35 -1
-55z m-5735 -62 c55 -13 50 -19 -19 -24 -78 -6 -98 -24 -37 -34 57 -9 62 -26
7 -26 -25 0 -46 -3 -46 -7 0 -5 18 -21 40 -36 53 -38 67 -63 39 -72 -32 -10
-16 -29 29 -36 23 -3 45 -8 48 -12 4 -3 1 -28 -6 -54 -12 -46 -15 -266 -5
-283 3 -5 7 -45 10 -89 4 -80 4 -81 -18 -75 -51 12 -206 -18 -268 -53 -3 -2
-4 27 -2 64 6 85 5 119 -2 161 -5 25 -3 32 6 26 9 -5 10 -1 4 17 -4 13 -9 41
-12 62 -3 20 -9 37 -14 37 -5 0 -9 8 -9 18 0 14 2 15 9 2 14 -20 19 70 6 93
-8 14 -6 21 8 31 9 7 17 18 17 24 0 11 84 32 130 32 23 0 30 5 30 20 0 16 -7
20 -37 21 l-38 0 38 17 c38 17 38 18 20 35 -11 9 -25 17 -31 17 -7 0 -12 5
-12 10 0 6 -4 10 -10 10 -5 0 -20 11 -33 24 -23 23 -24 26 -8 39 28 24 59 37
75 31 10 -4 18 0 22 10 4 10 13 15 23 12 9 -3 30 -8 46 -12z m5437 -6 c8 -7
18 -23 21 -35 4 -18 1 -23 -15 -23 -30 0 -58 19 -58 39 0 32 24 41 52 19z
m-1516 -55 c-4 -4 -21 -12 -39 -18 -18 -6 -31 -17 -29 -24 2 -8 -4 -10 -18 -6
-13 4 -20 2 -20 -6 0 -7 -3 -9 -7 -6 -9 10 27 42 62 55 35 12 61 15 51 5z m39
-3 c3 -5 1 -10 -4 -10 -6 0 -11 5 -11 10 0 6 2 10 4 10 3 0 8 -4 11 -10z
m-3923 -15 c0 -5 -5 -11 -11 -13 -6 -2 -11 4 -11 13 0 9 5 15 11 13 6 -2 11
-8 11 -13z m-257 -15 c3 -5 1 -10 -4 -10 -6 0 -11 5 -11 10 0 6 2 10 4 10 3 0
8 -4 11 -10z m-24 -81 c-6 -16 -10 -18 -10 -7 -1 22 12 55 16 42 2 -6 -1 -22
-6 -35z m124 22 c3 -5 1 -12 -5 -16 -5 -3 -10 1 -10 9 0 18 6 21 15 7z m-98
-23 c-3 -8 -6 -5 -6 6 -1 11 2 17 5 13 3 -3 4 -12 1 -19z m4163 -125 c33 -14
40 -23 40 -45 0 -15 4 -29 9 -32 13 -9 22 -68 15 -104 -8 -41 -59 -97 -107
-117 -33 -14 -40 -14 -74 2 -21 10 -40 18 -41 19 -7 4 22 74 29 74 4 0 11 -5
14 -10 4 -6 11 -8 16 -4 5 3 7 9 5 13 -3 4 -1 13 5 21 6 10 9 11 9 3 0 -20 28
-15 40 7 6 11 17 20 25 20 8 0 15 7 15 15 0 8 -8 15 -17 15 -14 0 -15 2 -4 13
11 10 14 10 18 0 3 -7 11 -13 19 -13 8 0 19 -11 24 -25 10 -27 20 -33 20 -12
0 8 -9 24 -20 37 -11 13 -20 30 -20 39 0 13 -12 16 -59 17 -46 1 -63 6 -80 23
-24 24 -20 38 13 51 33 14 62 11 106 -7z m-3654 -170 c-10 -10 -19 5 -10 18 6
11 8 11 12 0 2 -7 1 -15 -2 -18z m-29 -55 c-2 -13 -4 -5 -4 17 -1 22 1 32 4
23 2 -10 2 -28 0 -40z m-783 -131 c134 -76 75 -280 -80 -280 -80 0 -153 74
-154 156 0 41 36 105 73 127 44 27 111 26 161 -3z m5436 -17 c0 -5 -4 -10 -10
-10 -5 0 -10 5 -10 10 0 6 5 10 10 10 6 0 10 -4 10 -10z m-112 -18 c2 -7 -2
-10 -12 -6 -9 3 -16 11 -16 16 0 13 23 5 28 -10z m182 -7 c0 -19 -11 -19 -36
0 -18 14 -18 14 9 15 17 0 27 -5 27 -15z m206 -23 c-10 -10 -29 15 -21 28 6 9
10 8 17 -4 6 -10 7 -20 4 -24z m-1619 -53 c22 -8 24 -12 13 -19 -8 -6 -32 -10
-53 -10 -35 0 -37 2 -27 20 12 23 26 25 67 9z m135 -51 c-8 -8 -17 -8 -34 0
-22 10 -21 11 12 11 26 1 31 -2 22 -11z m1228 -23 c101 -64 87 -225 -23 -276
-61 -27 -101 -24 -154 11 -25 17 -46 30 -47 28 -1 -2 -13 -24 -26 -49 -19 -38
-31 -48 -70 -62 -55 -20 -93 -21 -121 -6 -12 6 -51 12 -88 13 -52 2 -75 8
-100 25 -81 58 -62 172 39 236 44 28 50 30 50 15 0 -5 7 -18 17 -29 14 -17 18
-18 31 -5 8 8 11 18 7 22 -4 4 -10 1 -12 -6 -3 -6 -9 -10 -14 -6 -13 7 -11 44
2 44 5 0 7 -4 4 -10 -4 -6 1 -7 10 -3 10 3 21 0 25 -7 6 -10 16 -10 49 4 23 9
49 16 57 16 23 0 78 -28 104 -53 13 -11 25 -17 27 -12 11 32 48 78 84 105 52
37 95 39 149 5z m591 -64 c1 -14 1 -105 -1 -201 -3 -203 -12 -237 -54 -194
-13 13 -16 45 -16 189 0 158 2 177 21 209 23 40 48 39 50 -3z m-1526 -129 c21
-14 35 -35 49 -74 21 -63 18 -86 -20 -144 -20 -31 -39 -45 -85 -64 -58 -23
-61 -23 -97 -6 -35 17 -37 17 -47 1 -39 -67 -52 -79 -105 -97 -52 -18 -57 -18
-103 -1 -57 20 -82 48 -98 106 -9 35 -8 47 9 83 38 77 126 122 199 102 27 -7
38 -7 41 1 7 21 76 83 107 97 44 19 115 17 150 -4z m-964 -242 c-13 -7 -17
-103 -7 -141 7 -24 7 -24 -8 1 -9 14 -15 37 -16 51 0 21 -6 28 -30 33 -16 3
-30 11 -30 17 0 7 11 9 30 5 32 -6 33 -5 45 49 6 27 8 28 17 11 7 -13 7 -20
-1 -26z m-314 -28 c-11 -41 -27 -57 -27 -27 0 18 29 79 35 73 2 -2 -2 -22 -8
-46z m-2726 -193 l-9 -34 -1 30 c0 17 2 41 6 55 7 23 8 24 11 4 2 -12 -1 -37
-7 -55z m5354 61 c3 -5 1 -10 -4 -10 -6 0 -11 5 -11 10 0 6 2 10 4 10 3 0 8
-4 11 -10z m655 -29 c0 -21 -26 -36 -36 -20 -9 15 3 39 21 39 8 0 15 -9 15
-19z m-30 -85 c0 -27 -20 -67 -30 -61 -14 9 -13 48 2 63 16 16 28 15 28 -2z
m-566 -55 c31 -18 56 -30 56 -26 0 3 9 1 20 -5 13 -7 20 -21 20 -41 0 -30 30
-55 38 -31 5 15 27 15 54 1 20 -11 20 -11 -3 -35 -12 -13 -29 -24 -37 -24 -8
0 -45 -19 -81 -43 -36 -24 -84 -51 -106 -61 -22 -10 -48 -26 -58 -34 -10 -9
-51 -21 -92 -27 -60 -10 -81 -9 -112 2 -23 8 -91 15 -174 17 -119 2 -144 6
-206 30 -64 24 -73 31 -87 67 -28 69 -19 121 28 172 54 58 116 68 231 38 83
-21 131 -44 148 -71 15 -25 34 -26 42 -1 34 108 193 144 319 72z m284 -113 c7
-7 12 -22 12 -34 0 -38 20 -38 60 1 44 43 56 42 96 -11 26 -34 29 -45 29 -113
l0 -76 -60 -12 c-33 -7 -67 -10 -75 -7 -8 4 -53 11 -99 18 -47 6 -86 16 -88
22 -2 7 8 26 23 43 21 25 28 45 30 89 3 44 8 61 25 75 25 20 31 21 47 5z
m-203 -458 c3 -10 5 -231 4 -492 -1 -260 -1 -481 0 -490 1 -9 11 -18 23 -20
30 -4 35 -34 7 -48 -26 -14 -69 1 -69 24 0 8 -8 19 -17 25 -21 11 -21 0 -9
571 4 217 12 409 17 427 11 34 34 36 44 3z m-2601 -42 c-14 -47 -53 -122 -54
-105 0 11 6 31 14 45 8 15 19 39 25 55 13 32 25 36 15 5z m-109 -38 c3 -6 -1
-7 -9 -4 -11 4 -16 0 -16 -12 0 -11 -7 -31 -14 -46 -16 -31 -6 -37 18 -12 14
13 16 14 16 0 0 -8 -5 -18 -11 -22 -6 -3 -9 -17 -6 -30 2 -13 0 -21 -6 -17 -5
3 -6 -3 -2 -16 3 -11 2 -29 -4 -38 -8 -15 -13 -12 -29 27 -11 25 -23 61 -26
80 -4 21 -3 28 2 16 8 -17 9 -16 25 7 9 15 17 32 17 40 0 14 19 37 31 37 4 0
11 -4 14 -10z m-885 -264 c6 -27 9 -50 7 -52 -1 -2 -14 11 -28 29 -16 20 -28
51 -32 82 l-6 50 24 -30 c13 -16 29 -52 35 -79z m-1328 71 c15 -12 15 -14 -2
-25 -28 -17 -52 -5 -39 19 11 22 18 23 41 6z m1885 -59 c-2 -23 -7 -34 -20
-36 -16 -3 -18 0 -12 20 7 21 24 48 30 48 2 0 3 -15 2 -32z m-1934 -3 c-7 -21
-13 -19 -13 6 0 11 4 18 10 14 5 -3 7 -12 3 -20z m-45 -11 c29 -8 31 -50 2
-59 -28 -9 -40 2 -40 36 0 31 2 32 38 23z m-1278 -584 c0 -18 -5 -30 -13 -30
-9 0 -12 10 -9 30 2 17 8 30 13 30 5 0 9 -13 9 -30z m1 -44 c0 -1 4 -40 8 -89
6 -69 12 -90 27 -102 19 -13 19 -14 -1 -33 -12 -10 -32 -22 -47 -25 -22 -6
-27 -3 -32 18 -4 14 -1 35 5 46 6 12 10 49 8 83 -3 88 -1 103 16 103 8 0 15
-1 16 -1z m165 -151 c15 -33 15 -35 -5 -61 -12 -15 -21 -41 -21 -60 0 -42 -15
-44 -28 -4 -6 16 -20 37 -31 47 -23 20 -27 33 -9 33 19 0 58 42 58 62 0 29 18
21 36 -17z m1168 -24 c22 -18 20 -31 -4 -31 -11 0 -20 -5 -20 -11 0 -6 -10 -8
-22 -5 -13 3 -18 3 -11 0 16 -7 5 -34 -14 -34 -11 0 -13 10 -8 48 8 62 13 74
24 67 5 -3 13 0 17 7 5 8 10 5 15 -8 4 -11 14 -26 23 -33z m-324 19 c0 -5 -7
-10 -15 -10 -8 0 -15 5 -15 10 0 6 7 10 15 10 8 0 15 -4 15 -10z m-2470 -49
c0 -5 3 -16 6 -25 4 -11 0 -16 -14 -16 -18 0 -32 18 -32 41 0 5 9 9 20 9 11 0
20 -4 20 -9z m7825 -23 c57 -82 45 -112 -51 -125 -67 -9 -94 9 -94 62 0 46 12
62 57 74 23 6 80 -1 88 -11z m-6490 -188 c3 -5 -3 -10 -15 -10 -12 0 -18 5
-15 10 3 6 10 10 15 10 5 0 12 -4 15 -10z m158 -10 c-3 -11 -7 -20 -9 -20 -2
0 -4 9 -4 20 0 11 4 20 9 20 5 0 7 -9 4 -20z m6272 -21 c-8 -12 -32 -12 -40 1
-11 18 5 31 26 20 11 -6 17 -15 14 -21z m-6395 -23 c0 -2 3 -11 6 -20 5 -13
-2 -16 -45 -16 -36 0 -51 4 -51 13 0 8 3 17 7 20 7 8 83 10 83 3z m-572 -24
c2 -7 -3 -12 -12 -12 -9 0 -16 7 -16 16 0 17 22 14 28 -4z m452 -27 c0 -11
-11 -15 -39 -15 -25 0 -41 5 -45 15 -4 12 4 15 39 15 33 0 45 -4 45 -15z"/>
<path d="M5201 9494 c0 -11 3 -14 6 -6 3 7 2 16 -1 19 -3 4 -6 -2 -5 -13z"/>
<path d="M5211 9454 c0 -11 3 -14 6 -6 3 7 2 16 -1 19 -3 4 -6 -2 -5 -13z"/>
<path d="M4568 9313 c7 -3 16 -2 19 1 4 3 -2 6 -13 5 -11 0 -14 -3 -6 -6z"/>
<path d="M8345 8890 c-3 -5 -1 -10 4 -10 6 0 11 -7 11 -15 0 -8 9 -15 20 -15
15 0 20 7 20 25 0 20 -5 25 -24 25 -14 0 -28 -4 -31 -10z"/>
<path d="M7512 8740 c14 -23 46 -34 75 -27 11 3 6 5 -12 6 -18 1 -35 9 -43 21
-7 11 -17 20 -22 20 -6 0 -5 -9 2 -20z"/>
<path d="M7572 8668 c6 -18 28 -21 28 -4 0 9 -7 16 -16 16 -9 0 -14 -5 -12
-12z"/>
<path d="M1604 7597 c-8 -34 1 -46 14 -20 6 11 7 25 2 33 -6 10 -10 7 -16 -13z"/>
<path d="M8433 6305 c-3 -9 -3 -18 -1 -21 3 -3 8 4 11 16 6 23 -1 27 -10 5z"/>
<path d="M8216 6295 c4 -8 8 -15 10 -15 2 0 4 7 4 15 0 8 -4 15 -10 15 -5 0
-7 -7 -4 -15z"/>
<path d="M2530 6430 c-12 -8 -8 -10 15 -10 17 1 44 -2 60 -5 22 -4 20 -2 -10
9 -47 18 -46 18 -65 6z"/>
<path d="M2625 6390 c-46 -41 -55 -51 -55 -60 0 -8 50 -15 98 -13 9 1 12 -7 9
-23 -2 -13 0 -24 4 -24 5 0 9 9 9 19 0 30 -18 71 -32 71 -9 0 -9 -3 0 -12 14
-14 16 -28 3 -28 -17 0 -25 62 -10 71 11 7 11 9 -1 8 -8 0 -19 -4 -25 -9z"/>
<path d="M2540 6330 c0 -5 5 -10 10 -10 6 0 10 5 10 10 0 6 -4 10 -10 10 -5 0
-10 -4 -10 -10z"/>
<path d="M2518 6233 c7 -3 16 -2 19 1 4 3 -2 6 -13 5 -11 0 -14 -3 -6 -6z"/>
<path d="M2574 6231 c3 -5 -1 -12 -10 -15 -8 -3 -13 -10 -10 -15 4 -5 16 -4
30 2 18 9 22 15 14 24 -12 15 -32 18 -24 4z"/>
<path d="M8420 5389 c0 -5 5 -7 10 -4 6 3 10 8 10 11 0 2 -4 4 -10 4 -5 0 -10
-5 -10 -11z"/>
<path d="M8410 5239 c-18 -33 -6 -42 13 -9 10 16 14 30 8 30 -6 0 -15 -9 -21
-21z"/>
<path d="M8320 5191 c-14 -4 -20 -10 -15 -13 10 -6 55 7 55 17 0 6 -7 5 -40
-4z"/>
<path d="M7530 3321 c0 -25 6 -27 13 -6 4 8 2 17 -3 20 -6 4 -10 -3 -10 -14z"/>
<path d="M5065 8412 c-11 -2 -22 -8 -25 -13 -3 -4 -37 -13 -75 -19 -82 -13
-135 -28 -135 -40 0 -13 31 -21 53 -14 11 3 23 1 27 -6 6 -10 18 -10 59 0 28
6 54 16 57 21 10 17 89 8 136 -15 61 -30 73 -10 23 39 -19 19 -36 35 -37 35
-2 0 -17 4 -33 8 -17 5 -39 6 -50 4z"/>
<path d="M4945 8193 c-12 -2 -34 -14 -49 -27 -24 -19 -27 -26 -18 -42 8 -14
11 -15 12 -4 0 8 11 20 25 26 21 10 26 9 40 -12 24 -36 70 -33 94 7 18 30 20
30 30 11 15 -28 49 -35 61 -12 11 21 1 32 -49 49 -33 11 -103 13 -146 4z"/>
<path d="M4245 8170 c-3 -5 -21 -11 -38 -11 -18 -1 -24 -3 -14 -6 17 -4 17 -6
2 -23 -10 -11 -15 -30 -13 -47 l3 -28 75 2 c41 1 80 2 85 3 6 0 3 5 -5 10 -12
8 -10 10 10 10 31 0 44 9 59 37 11 22 13 22 38 6 23 -15 24 -18 7 -23 -15 -6
-14 -8 9 -12 58 -11 14 51 -51 73 -19 6 -56 9 -83 7 -27 -3 -49 -1 -49 3 0 12
-27 11 -35 -1z m59 -66 c9 -22 -3 -32 -14 -14 -12 19 -12 30 -1 30 5 0 12 -7
15 -16z"/>
<path d="M4525 7897 c-48 -65 -64 -100 -65 -138 0 -42 20 -65 45 -52 15 9 15
11 1 22 -24 20 -19 56 13 92 37 40 56 83 44 102 -6 12 -14 7 -38 -26z"/>
<path d="M5400 7829 c0 -5 5 -7 10 -4 6 3 10 8 10 11 0 2 -4 4 -10 4 -5 0 -10
-5 -10 -11z"/>
<path d="M4556 7761 c-6 -9 75 -44 83 -35 3 3 -5 14 -18 25 -24 20 -56 25 -65
10z"/>
<path d="M4740 7766 c0 -2 15 -6 34 -8 19 -2 32 0 30 4 -5 8 -64 12 -64 4z"/>
<path d="M4505 7519 c-60 -14 -63 -24 -23 -64 32 -33 39 -35 76 -29 41 6 68
34 34 34 -35 1 45 30 118 43 l75 14 -80 0 c-44 0 -98 3 -120 6 -22 3 -58 1
-80 -4z"/>
<path d="M4860 7514 c24 -8 53 -11 65 -7 16 5 12 8 -20 14 -69 13 -96 9 -45
-7z"/>
<path d="M4510 6569 c1 -8 5 -34 10 -59 6 -34 4 -52 -7 -74 -12 -24 -13 -30
-1 -38 9 -7 3 -8 -17 -3 l-30 6 27 -27 27 -28 26 28 c21 23 25 34 19 64 -4 21
-11 45 -15 54 -5 9 -9 28 -9 41 0 14 -7 30 -15 37 -12 10 -15 10 -15 -1z"/>
<path d="M4211 6435 c-27 -40 -41 -69 -35 -74 5 -5 34 -12 65 -14 53 -4 58 -3
68 20 16 34 14 41 -14 75 -14 16 -25 36 -25 44 0 27 -15 14 -59 -51z"/>
<path d="M4142 6337 c-12 -15 1 -40 46 -87 l24 -25 -17 28 c-10 15 -23 43 -30
63 -9 28 -14 32 -23 21z"/>
<path d="M3413 5915 c0 -22 2 -30 4 -17 2 12 2 30 0 40 -3 9 -5 -1 -4 -23z"/>
<path d="M3422 5850 c0 -14 2 -19 5 -12 2 6 2 18 0 25 -3 6 -5 1 -5 -13z"/>
<path d="M3431 5804 c0 -11 3 -14 6 -6 3 7 2 16 -1 19 -3 4 -6 -2 -5 -13z"/>
<path d="M3350 5640 c0 -18 37 -76 90 -140 20 -25 43 -56 50 -70 7 -14 15 -20
17 -13 5 13 -23 70 -43 91 -8 7 -27 30 -42 50 -15 21 -29 39 -33 42 -3 3 -13
16 -22 30 -11 15 -17 19 -17 10z"/>
<path d="M3585 4870 c3 -5 8 -10 11 -10 2 0 4 5 4 10 0 6 -5 10 -11 10 -5 0
-7 -4 -4 -10z"/>
<path d="M0 4300 c0 -33 3 -41 17 -38 9 2 20 16 24 32 9 34 11 31 -18 40 -21
7 -23 4 -23 -34z"/>
<path d="M3 3900 c0 -30 2 -43 4 -27 2 15 2 39 0 55 -2 15 -4 2 -4 -28z"/>
<path d="M1 3580 l-1 -105 20 42 c13 30 29 47 52 56 l33 14 -42 21 c-25 13
-45 32 -51 49 -8 22 -11 6 -11 -77z"/>
<path d="M235 3436 c-38 -16 -83 -68 -91 -104 -14 -63 -15 -64 -42 -57 -33 8
-59 30 -84 70 -18 30 -18 27 -18 -247 1 -235 3 -278 16 -278 8 0 14 5 14 12 0
25 10 -1 19 -48 6 -31 6 -78 -1 -131 -12 -97 -6 -130 24 -135 12 -2 23 -9 26
-16 3 -10 -5 -13 -34 -10 -32 2 -40 -1 -51 -22 -10 -20 -13 -275 -13 -1247 l0
-1223 40 0 c22 0 40 5 40 10 0 6 -5 10 -11 10 -5 0 -7 5 -4 10 10 17 87 11
134 -10 41 -19 66 -20 457 -20 352 0 414 2 414 14 0 14 -37 49 -63 60 -8 3 -6
9 6 19 17 14 17 16 -5 31 -12 9 -28 16 -35 16 -16 0 -55 21 -65 35 -4 6 -8 34
-8 63 0 62 18 85 79 102 23 6 41 13 41 15 0 2 -10 20 -21 40 -17 28 -19 41
-12 58 6 12 14 36 19 52 8 26 15 30 48 33 29 3 36 7 32 18 -3 9 -6 19 -6 24 0
4 -13 13 -30 20 -18 7 -30 20 -30 30 0 10 -15 30 -32 44 -18 14 -40 32 -50 40
-9 8 -19 12 -22 9 -3 -3 -15 16 -26 42 -17 41 -20 63 -16 149 3 55 9 132 15
170 12 71 46 146 66 146 7 0 20 9 29 19 15 16 15 22 5 40 -11 16 -11 27 -1 54
7 18 12 43 12 56 0 24 38 45 55 30 19 -19 45 -10 45 16 0 41 -21 74 -51 80
-20 5 -29 13 -29 27 0 10 -7 26 -15 34 -20 20 -19 54 2 69 27 20 23 142 -7
190 -21 33 -22 45 -17 123 10 141 18 188 37 239 17 43 21 48 48 47 35 -2 42
13 42 88 0 63 -7 76 -47 93 -31 13 -39 13 -76 -4 -77 -35 -108 -36 -167 -4
-29 15 -62 34 -74 41 -22 13 -94 10 -105 -5 -7 -10 -72 -33 -93 -33 -8 0 -37
11 -64 25 -30 15 -66 25 -94 25 -60 1 -81 18 -80 66 0 22 -3 63 -6 92 -4 32
-2 52 4 52 6 0 13 -6 15 -12 3 -8 6 -6 6 5 1 21 19 23 27 2 5 -13 12 -10 33
12 l27 28 -31 10 c-27 10 -30 14 -28 50 4 58 21 70 106 70 39 0 101 -2 137 -5
64 -5 65 -5 68 22 2 18 -7 37 -28 62 -36 40 -56 45 -65 16 -4 -14 -26 -25 -73
-39 -37 -11 -76 -21 -87 -22 -33 -5 -103 39 -135 84 -16 23 -33 47 -37 52 -51
65 -74 142 -69 234 4 79 26 127 73 164 39 29 35 34 -12 13z m-125 -310 c0 -13
9 -45 19 -69 18 -42 18 -46 3 -60 -29 -26 -88 -27 -78 -1 3 8 2 23 -3 33 -6
10 -6 23 0 32 8 12 10 12 19 -1 8 -11 9 -4 5 25 -5 30 -4 36 4 25 9 -12 11
-10 11 13 0 15 5 27 10 27 6 0 10 -11 10 -24z m9 -253 c3 -2 -9 -3 -27 -1 -18
1 -32 6 -32 10 0 8 49 0 59 -9z m-72 -15 c-3 -8 -6 -5 -6 6 -1 11 2 17 5 13 3
-3 4 -12 1 -19z m126 -143 c4 -8 0 -27 -8 -42 -15 -28 -17 -26 -29 30 -5 22
-3 27 13 27 10 0 21 -7 24 -15z m6 -190 c7 -8 -21 -25 -31 -19 -4 3 -8 0 -8
-6 0 -6 -4 -9 -9 -6 -18 11 0 45 21 41 12 -3 23 -7 27 -10z m526 -2354 c20 -8
-46 -20 -135 -24 -59 -3 -44 18 17 24 85 8 96 8 118 0z"/>
<path d="M90 3075 c0 -8 5 -15 10 -15 6 0 10 7 10 15 0 8 -4 15 -10 15 -5 0
-10 -7 -10 -15z"/>
<path d="M4051 3364 c0 -11 3 -14 6 -6 3 7 2 16 -1 19 -3 4 -6 -2 -5 -13z"/>
<path d="M1928 3333 c7 -3 16 -2 19 1 4 3 -2 6 -13 5 -11 0 -14 -3 -6 -6z"/>
<path d="M1920 2869 c0 -5 5 -7 10 -4 6 3 10 8 10 11 0 2 -4 4 -10 4 -5 0 -10
-5 -10 -11z"/>
<path d="M1033 2863 c-22 -8 -14 -23 12 -23 14 0 25 4 25 9 0 11 -21 19 -37
14z"/>
<path d="M653 2739 c-13 -4 -23 -15 -23 -23 0 -7 -7 -16 -15 -20 -8 -3 -15
-11 -15 -17 0 -9 4 -9 14 0 16 13 32 -2 21 -19 -3 -5 2 -10 12 -11 16 0 16 -1
-2 -10 -15 -7 -12 -7 10 -2 17 4 56 8 89 8 49 0 61 4 73 22 19 28 8 62 -20 67
-52 11 -124 13 -144 5z"/>
<path d="M430 2705 c0 -8 5 -15 10 -15 6 0 10 7 10 15 0 8 -4 15 -10 15 -5 0
-10 -7 -10 -15z"/>
<path d="M461 2664 c0 -11 3 -14 6 -6 3 7 2 16 -1 19 -3 4 -6 -2 -5 -13z"/>
<path d="M685 2590 c3 -5 14 -10 23 -10 15 0 15 2 2 10 -20 13 -33 13 -25 0z"/>
<path d="M3305 2470 c4 -6 11 -8 16 -5 14 9 11 15 -7 15 -8 0 -12 -5 -9 -10z"/>
<path d="M4306 2434 c-4 -9 -1 -33 5 -51 6 -19 9 -48 5 -64 -3 -16 -1 -29 4
-29 8 0 14 19 12 40 -5 49 -14 115 -16 118 -2 1 -6 -5 -10 -14z"/>
<path d="M6047 2190 c-3 -12 -10 -19 -16 -15 -7 4 -11 -6 -11 -25 0 -27 3 -31
18 -25 9 4 27 10 40 12 27 6 27 11 -2 46 -23 28 -23 28 -29 7z"/>
<path d="M6140 2175 c7 -9 15 -13 17 -11 7 7 -7 26 -19 26 -6 0 -6 -6 2 -15z"/>
<path d="M1063 2040 c0 -25 2 -35 4 -22 2 12 2 32 0 45 -2 12 -4 2 -4 -23z"/>
<path d="M4430 1928 c0 -9 5 -20 10 -23 13 -8 13 5 0 25 -8 13 -10 13 -10 -2z"/>
<path d="M3485 1807 c-12 -44 -3 -62 33 -65 24 -2 32 1 32 12 0 9 -5 16 -10
16 -6 0 -19 14 -30 32 l-19 31 -6 -26z"/>
<path d="M6267 1618 c-2 -18 -3 -35 0 -38 7 -8 23 24 23 48 0 34 -17 26 -23
-10z"/>
<path d="M2862 1547 c-67 -90 -97 -167 -72 -182 6 -3 10 -3 10 2 0 4 29 59 64
121 68 119 67 153 -2 59z"/>
<path d="M3500 1354 c-10 -12 -8 -14 14 -14 28 0 35 14 12 23 -8 3 -20 -1 -26
-9z"/>
<path d="M2920 1325 c0 -23 4 -26 28 -23 19 2 27 9 27 22 0 14 -8 20 -27 23
-24 3 -28 0 -28 -22z"/>
<path d="M3082 1328 c2 -19 10 -24 44 -26 30 -2 43 1 47 12 8 20 -21 36 -63
36 -27 0 -31 -3 -28 -22z"/>
<path d="M3320 1340 c-13 -8 -13 -11 -1 -19 16 -10 60 0 61 14 1 14 -42 17
-60 5z"/>
<path d="M3593 1213 c-19 -7 -15 -44 6 -73 17 -21 22 -23 45 -12 26 12 28 23
10 80 -3 12 -37 15 -61 5z"/>
<path d="M3030 1131 c0 -4 9 -19 19 -32 10 -14 21 -36 24 -49 2 -15 5 -7 6 21
0 25 -4 50 -11 57 -14 14 -38 16 -38 3z"/>
<path d="M3262 1117 c-14 -17 -4 -57 14 -57 17 0 37 37 30 56 -7 18 -30 18
-44 1z"/>
<path d="M3813 1074 c-18 -8 -33 -17 -33 -22 1 -14 81 -64 94 -59 12 5 11 13
-2 51 -9 25 -19 46 -22 45 -3 0 -20 -7 -37 -15z"/>
<path d="M3559 985 c-4 -16 -9 -39 -13 -50 -4 -11 0 -7 9 8 9 16 15 38 13 50
-3 18 -5 17 -9 -8z"/>
<path d="M2930 981 c-11 -8 -12 -13 -3 -22 14 -14 76 -2 70 14 -5 15 -48 20
-67 8z"/>
<path d="M3181 881 c-14 -9 -45 -20 -70 -26 -50 -11 -53 -29 -6 -31 17 -1 41
-6 52 -13 12 -6 38 -11 58 -11 42 0 56 22 31 49 -9 10 -16 22 -16 28 0 19 -24
21 -49 4z"/>
<path d="M3646 883 c-15 -15 -4 -44 20 -53 32 -12 71 -13 78 -1 7 10 -89 63
-98 54z"/>
<path d="M3120 399 c0 -18 2 -19 15 -9 8 7 15 16 15 21 0 5 -7 9 -15 9 -9 0
-15 -9 -15 -21z"/>
<path d="M3406 382 c-7 -12 7 -29 31 -36 29 -9 42 13 18 31 -21 15 -41 17 -49
5z"/>
<path d="M3215 340 c-18 -35 -17 -35 29 -13 28 13 33 19 25 30 -18 21 -37 15
-54 -17z"/>
<path d="M3025 279 c-4 -6 -1 -15 6 -20 21 -13 31 -11 27 8 -4 20 -24 28 -33
12z"/>
<path d="M3141 276 c-20 -24 4 -58 37 -54 23 2 27 8 27 33 0 25 -4 31 -26 33
-14 2 -31 -4 -38 -12z"/>
<path d="M3477 263 c-13 -12 -7 -23 13 -23 11 0 20 7 20 15 0 15 -21 21 -33 8z"/>
<path d="M985 246 c-18 -13 -17 -14 14 -21 38 -8 66 9 41 25 -21 13 -33 12
-55 -4z"/>
<path d="M6166 185 c-8 -9 -13 -22 -10 -30 4 -9 -10 -24 -36 -42 -39 -27 -120
-100 -120 -109 0 -2 34 -4 76 -4 l77 0 -7 40 c-4 25 -2 40 4 40 5 0 10 -18 10
-40 l0 -40 56 0 57 0 -7 31 c-3 17 -6 46 -6 63 0 19 -10 42 -25 60 -14 16 -25
33 -25 38 0 13 -27 9 -44 -7z"/>
<path d="M3110 168 c1 -29 16 -38 32 -19 14 17 15 20 1 25 -23 9 -33 7 -33 -6z"/>
<path d="M4776 171 c-3 -4 1 -17 9 -27 8 -10 15 -14 15 -7 0 6 3 18 6 27 6 17
-20 23 -30 7z"/>
<path d="M3088 86 c-38 -29 -8 -86 45 -86 22 0 27 5 27 24 0 35 -10 56 -26 56
-8 0 -14 5 -14 10 0 13 -11 12 -32 -4z"/>
<path d="M3744 79 c-3 -6 -1 -16 5 -22 8 -8 11 -5 11 11 0 24 -5 28 -16 11z"/>
<path d="M5738 71 c12 -11 22 -24 22 -30 0 -6 18 -11 40 -11 29 0 40 -4 40
-15 0 -12 15 -15 72 -15 97 0 79 15 -48 41 -54 11 -101 24 -104 28 -3 4 -14
11 -25 14 -18 6 -18 5 3 -12z"/>
<path d="M6820 64 c-36 -7 -84 -12 -106 -13 -48 -1 -73 -21 -50 -40 9 -8 53
-11 133 -9 l119 3 -15 35 -16 35 -65 -11z"/>
<path d="M3822 49 c-4 -4 -23 -9 -42 -11 -24 -2 -36 -9 -38 -21 -3 -15 6 -17
87 -17 50 0 91 4 91 8 0 29 -77 61 -98 41z"/>
<path d="M6545 10 c-3 -5 -1 -10 4 -10 6 0 11 5 11 10 0 6 -2 10 -4 10 -3 0
-8 -4 -11 -10z"/>
</g>
</svg>
