<?xml version="1.0" standalone="no"?>
<!DOCTYPE svg PUBLIC "-//W3C//DTD SVG 20010904//EN"
 "http://www.w3.org/TR/2001/REC-SVG-20010904/DTD/svg10.dtd">
<svg version="1.0" xmlns="http://www.w3.org/2000/svg"
 width="256.000000pt" height="256.000000pt" viewBox="0 0 256.000000 256.000000"
 preserveAspectRatio="xMidYMid meet">

<g transform="translate(0.000000,256.000000) scale(0.100000,-0.100000)"
fill="#000000" stroke="none">
<path d="M1664 2386 c-10 -25 3 -45 33 -51 74 -15 132 -38 176 -71 88 -65 146
-171 147 -271 0 -67 7 -83 36 -83 20 0 24 5 24 33 0 58 -29 167 -57 218 -15
28 -50 74 -78 104 -83 86 -264 165 -281 121z"/>
<path d="M1492 2244 c3 -26 8 -29 66 -41 86 -17 153 -56 217 -125 62 -67 93
-138 103 -242 7 -67 8 -71 32 -71 25 0 25 1 22 69 -11 216 -187 416 -382 433
l-62 6 4 -29z"/>
<path d="M1411 1932 c0 -7 -5 -10 -11 -7 -32 20 19 -148 97 -319 80 -175 133
-260 133 -212 0 7 -25 63 -55 124 -53 108 -148 351 -158 402 -2 14 -5 19 -6
12z"/>
<path d="M1156 1630 c7 -33 6 -34 -11 -20 -17 13 -17 11 2 -15 11 -16 35 -59
53 -95 46 -94 152 -270 162 -270 10 0 10 0 -4 41 -12 35 -170 338 -195 374
-12 18 -13 17 -7 -15z"/>
<path d="M2010 1409 c0 -8 -4 -20 -9 -28 -8 -12 -12 -13 -26 -1 -15 12 -15 11
-4 -13 7 -15 16 -27 20 -27 10 0 33 70 25 77 -3 4 -6 0 -6 -8z"/>
<path d="M344 1275 c-9 -51 13 -162 46 -231 56 -116 151 -198 271 -235 75 -23
115 -24 123 -3 9 24 -9 41 -52 49 -176 32 -321 194 -323 363 -1 78 -6 92 -34
92 -20 0 -25 -7 -31 -35z"/>
<path d="M960 1273 c0 -10 19 -31 43 -48 l42 -30 -33 43 c-41 51 -52 59 -52
35z"/>
<path d="M197 1153 c-23 -22 4 -177 44 -255 57 -112 209 -218 317 -221 44 -2
47 0 50 25 3 24 -1 27 -40 33 -114 18 -235 110 -282 214 -17 38 -28 86 -32
135 -6 70 -9 76 -29 76 -12 0 -25 -3 -28 -7z"/>
<path d="M1190 990 c6 -11 16 -20 22 -20 6 0 3 9 -7 20 -10 11 -20 20 -22 20
-2 0 1 -9 7 -20z"/>
</g>
</svg>
